<?xml version="1.0" encoding="UTF-8"?>
<svg version="1.1" xmlns="http://www.w3.org/2000/svg" width="1024" height="1024">
<path d="M0 0 C2.14640196 1.46961322 4.2186346 3.00812066 6.28491211 4.58837891 C7.44398071 5.44967407 7.44398071 5.44967407 8.62646484 6.32836914 C10.25800258 7.54187565 11.88563151 8.7606533 13.50952148 9.984375 C17.49648704 12.98566529 21.51711545 15.94106909 25.53491211 18.90087891 C26.72165527 19.77812622 26.72165527 19.77812622 27.93237305 20.6730957 C33.77841405 24.98697582 39.68761019 29.2023123 45.63549805 33.37426758 C50.71864197 36.9422663 55.75866606 40.56575721 60.78491211 44.21337891 C69.60748035 50.60566966 78.51132417 56.87624538 87.46118164 63.08886719 C89.97107456 64.83744707 92.47017882 66.60066955 94.96850586 68.36572266 C104.02256307 74.7199363 112.89820383 80.21595162 122.97241211 84.83837891 C136.07045133 90.99048823 136.07045133 90.99048823 139.97241211 95.83837891 C140.83866211 96.82837891 141.70491211 97.81837891 142.59741211 98.83837891 C149.64145084 109.0600124 148.80877076 122.85221273 146.78491211 134.46337891 C145.43730141 140.67246373 143.65927799 145.66623277 139.97241211 150.83837891 C139.3265918 151.77230469 139.3265918 151.77230469 138.66772461 152.72509766 C128.96534865 165.36011268 111.62267185 168.99204094 96.68725586 171.26025391 C85.9078704 172.66426438 75.13694568 172.99561626 64.27783203 173.04370117 C62.85721064 173.05330924 61.43659192 173.06332089 60.01597595 173.07369995 C56.20283518 173.10043844 52.38968243 173.12161352 48.57650161 173.14170194 C44.5753377 173.16375605 40.57420939 173.19104855 36.57307434 173.21775818 C29.01575945 173.26742511 21.45842453 173.31245899 13.90107089 173.35578054 C5.28905968 173.40537695 -3.32291578 173.46021108 -11.9348923 173.51546013 C-29.6324242 173.62888038 -47.32998996 173.73580446 -65.02758789 173.83837891 C-65.02758789 174.16837891 -65.02758789 174.49837891 -65.02758789 174.83837891 C-66.67758789 174.83837891 -68.32758789 174.83837891 -70.02758789 174.83837891 C-70.02758789 174.50837891 -70.02758789 174.17837891 -70.02758789 173.83837891 C-71.02998253 173.82624863 -71.02998253 173.82624863 -72.05262756 173.81387329 C-79.07839327 173.72706783 -86.10390109 173.62754221 -93.12939453 173.52099609 C-95.74295685 173.48297596 -98.35656671 173.44807884 -100.97021484 173.41650391 C-128.83812433 173.07567719 -128.83812433 173.07567719 -141.02758789 170.83837891 C-141.02758789 170.17837891 -141.02758789 169.51837891 -141.02758789 168.83837891 C-142.07946289 168.46712891 -142.07946289 168.46712891 -143.15258789 168.08837891 C-150.48982574 164.89827549 -154.96198198 160.75117134 -158.03930664 153.43212891 C-161.76705801 141.96212469 -160.07180928 128.61550059 -155.04980469 117.71630859 C-151.99086548 110.88342449 -151.48521354 105.01809688 -151.46508789 97.58837891 C-150.88965215 71.29395473 -147.92143529 30.85530973 -127.65258789 11.27587891 C-124.05152076 8.51795003 -120.57249605 7.2487692 -116.02758789 7.83837891 C-107.46984607 10.34974174 -103.05152155 15.81304078 -98.02758789 22.83837891 C-91.1720465 32.2020452 -83.02364777 40.94249811 -71.02758789 42.83837891 C-59.28659009 44.00979605 -49.82535438 42.73026042 -39.02758789 37.83837891 C-38.09430664 37.51224609 -37.16102539 37.18611328 -36.19946289 36.85009766 C-33.5586279 35.77466328 -31.92529337 34.97389209 -30.02758789 32.83837891 C-29.34568097 29.6185138 -29.27573316 26.61192044 -29.23852539 23.32275391 C-28.73186922 14.95354458 -24.61387798 7.37406023 -18.84399414 1.40478516 C-12.85653694 -3.75859191 -6.84731611 -3.9228814 0 0 Z M-11.52758789 12.96337891 C-14.97108415 17.26774923 -16.23355618 21.46742856 -17.02758789 26.83837891 C-14.40185728 26.19540387 -11.77701486 25.5491348 -9.15258789 24.90087891 C-8.4062207 24.71847656 -7.65985352 24.53607422 -6.89086914 24.34814453 C-2.85719664 23.38628198 -2.85719664 23.38628198 0.97241211 21.83837891 C2.63860657 21.79870761 4.30632224 21.79453444 5.97241211 21.83837891 C4.31589399 20.49245793 2.64585972 19.1631916 0.97241211 17.83837891 C0.30983398 17.30986328 -0.35274414 16.78134766 -1.03540039 16.23681641 C-1.73407227 15.69283203 -2.43274414 15.14884766 -3.15258789 14.58837891 C-3.81516602 14.06759766 -4.47774414 13.54681641 -5.16040039 13.01025391 C-7.57945359 11.49201968 -9.16636318 11.19246038 -11.52758789 12.96337891 Z M-121.05883789 24.49853516 C-123.18285898 27.02291736 -124.3002369 29.2199408 -125.52758789 32.27587891 C-125.90915039 33.20271484 -126.29071289 34.12955078 -126.68383789 35.08447266 C-135.33603551 59.25529217 -137.8912631 83.37772 -138.02758789 108.83837891 C-130.84817496 110.577597 -123.71560065 111.59974718 -116.38305664 112.45947266 C-115.17805008 112.60490005 -113.97304352 112.75032745 -112.73152161 112.90016174 C-108.89320538 113.36297592 -105.0542261 113.81993745 -101.21508789 114.27587891 C-85.43349836 116.15692093 -69.67559529 118.0637752 -53.97459412 120.53840637 C-52.17048434 120.81636305 -50.36255071 121.06918541 -48.55444336 121.31982422 C-44.34378521 121.93891863 -40.16854953 122.69818096 -35.98461914 123.47509766 C-34.18695902 123.80590134 -32.38926894 124.13654227 -30.59155273 124.46704102 C-29.65317566 124.63992645 -28.71479858 124.81281189 -27.74798584 124.99093628 C-12.15091245 127.86020458 3.45608443 130.65795406 19.09741211 133.27587891 C19.83841156 133.40102875 20.57941101 133.52617859 21.34286499 133.65512085 C53.24780726 139.03220783 85.85544291 138.32227557 116.97241211 128.83837891 C117.76019043 128.6021582 118.54796875 128.3659375 119.35961914 128.12255859 C121.64085703 127.41940832 123.90104883 126.67260199 126.15991211 125.90087891 C126.83812012 125.68455811 127.51632812 125.4682373 128.21508789 125.24536133 C130.32061545 124.53660252 130.32061545 124.53660252 132.97241211 122.83837891 C134.12007577 119.33963097 134.22305132 116.40030111 133.34741211 112.83837891 C133.21077148 112.21962891 133.07413086 111.60087891 132.93334961 110.96337891 C129.42652356 103.20844651 123.53708893 100.83932506 116.09741211 97.58837891 C107.55677012 93.69631322 99.76840635 89.46871392 92.12866211 84.02978516 C88.82868809 81.73859033 85.4835797 79.78459427 81.97241211 77.83837891 C81.11518555 78.57185547 80.25795898 79.30533203 79.37475586 80.06103516 C78.22066932 81.00869971 77.06567264 81.95525665 75.90991211 82.90087891 C75.34852539 83.38621094 74.78713867 83.87154297 74.20874023 84.37158203 C70.88975875 87.04573282 69.58672989 87.84844969 65.15991211 87.77587891 C61.67031485 86.74952677 60.6923034 85.97465127 58.97241211 82.83837891 C61.95576065 77.82635335 65.41193198 74.45089406 69.97241211 70.83837891 C66.03653017 66.51329209 66.03653017 66.51329209 60.97241211 63.83837891 C57.07375474 64.29308193 54.89647874 66.34222446 51.97241211 68.83837891 C46.60890473 73.41698277 46.60890473 73.41698277 42.97241211 73.83837891 C40.03656304 72.97489389 39.1591447 72.13877481 37.53491211 69.52587891 C36.97241211 66.83837891 36.97241211 66.83837891 37.90991211 64.40087891 C40.5806484 61.08269139 43.65090455 58.48648494 46.97241211 55.83837891 C45.81822378 53.53000225 44.54981781 52.45231165 42.59741211 50.77587891 C41.99155273 50.24865234 41.38569336 49.72142578 40.76147461 49.17822266 C38.90396345 47.64024907 38.90396345 47.64024907 35.97241211 46.83837891 C33.09261257 48.96319176 30.51705401 51.34209067 27.85913086 53.73681641 C24.72305646 56.01991252 22.82088696 56.68250492 18.97241211 56.83837891 C16.53491211 55.27587891 16.53491211 55.27587891 14.97241211 52.83837891 C14.78491211 49.96337891 14.78491211 49.96337891 15.97241211 46.83837891 C18.12555893 44.58270128 20.46413415 42.68520498 22.97241211 40.83837891 C22.64241211 39.84837891 22.31241211 38.85837891 21.97241211 37.83837891 C12.63470786 33.850572 2.56346623 33.76008302 -7.02758789 36.83837891 C-12.47634938 39.28739213 -17.74671198 42.04945069 -23.02758789 44.83837891 C-36.15726148 51.7415775 -47.63761982 57.12800445 -62.77758789 57.27587891 C-64.0908606 57.29134766 -64.0908606 57.29134766 -65.43066406 57.30712891 C-71.45840477 57.22503351 -76.44084095 56.06310887 -82.02758789 53.83837891 C-82.9002832 53.50837891 -83.77297852 53.17837891 -84.67211914 52.83837891 C-96.40448609 47.42669253 -104.59529128 37.71667377 -112.06665039 27.49072266 C-113.91909985 24.8480552 -113.91909985 24.8480552 -116.02758789 22.83837891 C-119.07767257 22.52196277 -119.07767257 22.52196277 -121.05883789 24.49853516 Z M-142.02758789 122.83837891 C-145.23592554 132.36313131 -147.82690523 140.06870574 -144.02758789 149.83837891 C-139.39411894 155.6633113 -133.560719 157.91236567 -126.33385438 158.80033326 C-125.65450595 158.8694258 -124.97515752 158.93851834 -124.27522278 159.00970459 C-123.54027519 159.08944763 -122.8053276 159.16919067 -122.04810888 159.25135016 C-113.39515081 160.11172581 -104.75251718 160.11917582 -96.06542969 160.09716797 C-94.23332583 160.09988635 -92.40122306 160.10345198 -90.56912231 160.10778809 C-85.6453616 160.11681566 -80.72168579 160.11340756 -75.7979238 160.10702991 C-70.60899891 160.1019172 -65.42008062 160.10667607 -60.2311554 160.10980225 C-51.51883661 160.11342765 -42.80655188 160.10868141 -34.09423828 160.09912109 C-24.07237281 160.0882496 -14.05058882 160.09175844 -4.02872533 160.1027739 C4.62579325 160.11189992 13.28028754 160.11310596 21.93480939 160.10789657 C27.08168347 160.10480457 32.22851948 160.10428993 37.37539101 160.11096954 C42.22075644 160.11681995 47.06601866 160.11260815 51.91137314 160.10118103 C53.67196037 160.09857456 55.43255656 160.09922909 57.19314003 160.10370636 C66.38358095 160.12489232 75.46058934 159.83640864 84.61149597 158.93939209 C85.41438311 158.86087328 86.21727025 158.78235447 87.0444873 158.70145631 C100.54980981 157.25081877 117.86875593 154.70083375 127.97241211 144.83837891 C129.57008089 142.56276759 130.74209915 140.34821735 131.97241211 137.83837891 C127.38052884 138.47731068 123.23625186 139.6711344 118.84741211 141.15087891 C93.49766533 149.22602347 64.00387489 153.31630809 37.57543945 149.23730469 C34.79168727 148.810682 32.00370661 148.44529255 29.21069336 148.08447266 C16.16828153 146.33524302 3.25866155 143.99481878 -9.66574097 141.54446411 C-48.4393733 134.19753071 -87.3467706 128.7265148 -126.53149414 124.12353516 C-127.63662354 123.9926651 -128.74175293 123.86179504 -129.88037109 123.72695923 C-131.40645996 123.55020157 -131.40645996 123.55020157 -132.96337891 123.36987305 C-133.84913101 123.26663223 -134.73488312 123.16339142 -135.6474762 123.05702209 C-138.2931038 122.77739397 -138.2931038 122.77739397 -142.02758789 122.83837891 Z " fill="#111111" transform="translate(246.027587890625,408.16162109375)"/>
<path d="M0 0 C7.86219751 3.93852995 13.30846333 9.78193164 17.37890625 17.53515625 C18.33686073 21.0186271 18.70086785 24.44069531 19.06640625 28.03515625 C16.76986925 29.18342475 15.48327458 29.150768 12.93359375 29.1328125 C12.12792969 29.12958984 11.32226562 29.12636719 10.4921875 29.12304688 C9.65042969 29.11466797 8.80867188 29.10628906 7.94140625 29.09765625 C7.09191406 29.09314453 6.24242187 29.08863281 5.3671875 29.08398438 C3.26689716 29.07218499 1.16664295 29.05424931 -0.93359375 29.03515625 C-1.12042725 28.48593506 -1.30726074 27.93671387 -1.49975586 27.37084961 C-1.7550708 26.65034424 -2.01038574 25.92983887 -2.2734375 25.1875 C-2.522146 24.47327881 -2.77085449 23.75905762 -3.02709961 23.02319336 C-4.58305321 19.61082327 -6.57677495 18.56098298 -9.93359375 17.03515625 C-15.71207359 15.64135207 -20.82629834 15.56715102 -26.30078125 18.02734375 C-28.95446283 19.66526205 -29.93124018 21.0949191 -30.93359375 24.03515625 C-31.1764527 27.58640954 -31.1764527 27.58640954 -29.93359375 31.03515625 C-25.38328561 35.62112511 -20.8526833 37.47061048 -14.74609375 39.34765625 C-13.93978516 39.61126953 -13.13347656 39.87488281 -12.30273438 40.14648438 C-7.71259694 41.61645094 -7.71259694 41.61645094 -2.93359375 42.03515625 C-2.93359375 42.69515625 -2.93359375 43.35515625 -2.93359375 44.03515625 C-1.83337891 44.21691406 -1.83337891 44.21691406 -0.7109375 44.40234375 C5.95808921 45.92186882 11.66302017 49.71184304 15.84765625 55.09375 C20.31268594 62.20631333 21.34145956 70.30665589 19.52734375 78.45703125 C18.07760024 83.20454297 16.15707203 87.1468993 13.06640625 91.03515625 C12.40640625 91.03515625 11.74640625 91.03515625 11.06640625 91.03515625 C11.06640625 91.69515625 11.06640625 92.35515625 11.06640625 93.03515625 C9.08984375 94.47265625 9.08984375 94.47265625 6.44140625 96.03515625 C5.58289063 96.55078125 4.724375 97.06640625 3.83984375 97.59765625 C-6.63739501 103.02811239 -20.68774489 103.50480574 -31.93359375 100.03515625 C-40.80152389 96.86709152 -47.77025487 91.088361 -51.87109375 82.47265625 C-53.07973003 78.56236241 -53.65210124 75.11679766 -53.93359375 71.03515625 C-52.38409107 69.48565357 -50.83368781 69.81860432 -48.6796875 69.71875 C-47.82568359 69.67685547 -46.97167969 69.63496094 -46.09179688 69.59179688 C-45.19396484 69.55248047 -44.29613281 69.51316406 -43.37109375 69.47265625 C-42.01854492 69.40788086 -42.01854492 69.40788086 -40.63867188 69.34179688 C-38.4038089 69.23537483 -36.16883067 69.13335637 -33.93359375 69.03515625 C-33.70937744 69.68524658 -33.48516113 70.33533691 -33.25415039 71.00512695 C-31.77034807 75.12807545 -30.37805212 78.34070371 -26.49609375 80.59765625 C-19.80922729 83.33262227 -11.96279385 83.11334611 -5.24609375 80.72265625 C-2.71283273 79.07792081 -2.71283273 79.07792081 -0.93359375 76.03515625 C-0.19257451 70.42591502 -0.19257451 70.42591502 -2.63671875 65.5546875 C-7.07394915 61.44861718 -13.47662466 60.29129995 -19.12109375 58.59765625 C-31.30110067 54.92305514 -43.57428406 50.97942671 -49.9609375 39.12890625 C-53.14281408 31.73874129 -52.67464263 24.13330288 -50.16015625 16.58984375 C-45.96135416 7.84456806 -38.79397356 2.4737513 -29.93359375 -0.96484375 C-21.34141093 -3.82890469 -8.41928256 -3.14807957 0 0 Z " fill="#101010" transform="translate(449.93359375,453.96484375)"/>
<path d="M0 0 C0.61968155 -0.00410385 1.2393631 -0.0082077 1.87782288 -0.01243591 C3.11984718 -0.02066124 3.11984718 -0.02066124 4.38696289 -0.02905273 C5.24935577 -0.03460175 6.11174866 -0.04015076 7.00027466 -0.04586792 C8.80545841 -0.05818683 10.61062314 -0.0733667 12.41577148 -0.09008789 C13.18477783 -0.09258545 13.95378418 -0.09508301 14.74609375 -0.09765625 C15.93223267 -0.10551147 15.93223267 -0.10551147 17.14233398 -0.11352539 C19 0 19 0 20 1 C20.09340434 2.62674778 20.11745171 4.25754051 20.11352539 5.88696289 C20.11344986 6.92796646 20.11337433 7.96897003 20.11329651 9.04151917 C20.10813522 10.1737944 20.10297394 11.30606964 20.09765625 12.47265625 C20.0962413 13.62543564 20.09482635 14.77821503 20.09336853 15.96592712 C20.08775005 19.66481064 20.07519442 23.36363464 20.0625 27.0625 C20.05748738 29.56315017 20.05292406 32.06380129 20.04882812 34.56445312 C20.03777462 40.70965588 20.02101852 46.85482369 20 53 C21.32 53 22.64 53 24 53 C24.24105469 52.44183594 24.48210938 51.88367188 24.73046875 51.30859375 C26.26886579 48.51107791 28.15561964 46.41513085 30.3125 44.0625 C31.116875 43.18207031 31.92125 42.30164063 32.75 41.39453125 C34.39748954 39.64121338 36.09226686 37.93200573 37.8125 36.25 C40.18256195 34.07772342 40.18256195 34.07772342 41.33984375 30.9140625 C44.49181422 27.46124316 45.35272899 27.51222103 49.859375 27.1953125 C52.15575584 27.14221699 54.45301111 27.1198899 56.75 27.125 C57.92433594 27.104375 59.09867188 27.08375 60.30859375 27.0625 C63.20643612 27.01538061 66.1018526 26.99556082 69 27 C69 30 69 30 67.0625 32.125 C66.04399093 33.08580318 65.02274038 34.04370215 64 35 C59.06577031 39.82355538 54.27011328 44.70193383 49.7734375 49.9375 C47.72897617 52.31519952 45.64807236 54.65830471 43.5625 57 C42.88316406 57.763125 42.20382812 58.52625 41.50390625 59.3125 C41.00761719 59.869375 40.51132812 60.42625 40 61 C44.06998424 67.69038505 48.90961864 73.64951582 53.87841797 79.67578125 C59.53953272 86.57855314 64.79974509 93.74673864 70 101 C69.67 101.66 69.34 102.32 69 103 C65.5834948 103.08724706 62.16727687 103.14047325 58.75 103.1875 C57.78191406 103.21263672 56.81382812 103.23777344 55.81640625 103.26367188 C54.88183594 103.27333984 53.94726562 103.28300781 52.984375 103.29296875 C51.69611816 103.31653442 51.69611816 103.31653442 50.38183594 103.34057617 C46.64023023 102.80556798 44.77589574 101.03356992 42.54956055 98.06787109 C42.10394775 97.35195801 41.65833496 96.63604492 41.19921875 95.8984375 C37.99470243 90.92393212 34.46375012 86.2777136 30.8125 81.625 C29.88920898 80.43583984 29.88920898 80.43583984 28.94726562 79.22265625 C26.40240925 75.96369609 23.93079082 72.93079082 21 70 C20.67 80.56 20.34 91.12 20 102 C14.89913203 102.6376085 10.53334966 103.11969716 5.5 103.0625 C3.93765625 103.04896484 3.93765625 103.04896484 2.34375 103.03515625 C1.5703125 103.02355469 0.796875 103.01195312 0 103 C-0.15638768 93.85257557 -0.30446918 84.70506018 -0.4429636 75.5573473 C-0.50756529 71.30614347 -0.57465319 67.05501442 -0.64819336 62.80395508 C-1.00903253 41.82680008 -1.01154903 20.9624036 0 0 Z M20 54 C19.67 54.66 19.34 55.32 19 56 C19.66 56 20.32 56 21 56 C20.67 55.34 20.34 54.68 20 54 Z " fill="#0F100F" transform="translate(708,451)"/>
<path d="M0 0 C5.88667479 4.79147948 10.08986478 10.3102875 11.02426147 17.9357605 C11.22546945 21.25891942 11.33735609 24.57407366 11.41796875 27.90234375 C11.47818962 29.71866051 11.47818962 29.71866051 11.53962708 31.57167053 C11.66434366 35.42250303 11.76993303 39.27358625 11.875 43.125 C11.9564192 45.74287813 12.03908749 48.36071773 12.12304688 50.97851562 C12.32567074 57.38113477 12.51261239 63.78406643 12.6875 70.1875 C8.59746141 71.33732602 4.65572949 71.29844256 0.4375 71.25 C-0.30757812 71.24548828 -1.05265625 71.24097656 -1.8203125 71.23632812 C-3.6510764 71.22459246 -5.48179873 71.2066585 -7.3125 71.1875 C-7.6425 69.8675 -7.9725 68.5475 -8.3125 67.1875 C-11.2930102 67.83048647 -13.77330247 68.83656789 -16.5 70.1875 C-25.13189674 74.03951907 -33.24017324 73.58751996 -42.3125 71.1875 C-44.89333774 70.04480585 -46.96946146 68.78502628 -49.3125 67.1875 C-49.3125 66.5275 -49.3125 65.8675 -49.3125 65.1875 C-49.9725 65.1875 -50.6325 65.1875 -51.3125 65.1875 C-56.21874515 56.19652051 -56.60229666 50.1779142 -54.3125 40.1875 C-53.9825 39.1975 -53.6525 38.2075 -53.3125 37.1875 C-52.6525 37.1875 -51.9925 37.1875 -51.3125 37.1875 C-51.10625 36.61 -50.9 36.0325 -50.6875 35.4375 C-47.63049464 30.4351276 -42.16686643 28.43128689 -36.77734375 26.78125 C-27.52545819 24.5525866 -17.76257377 25.07272178 -8.3125 25.1875 C-8.3125 22.8775 -8.3125 20.5675 -8.3125 18.1875 C-8.9725 17.8575 -9.6325 17.5275 -10.3125 17.1875 C-10.8075 15.7025 -10.8075 15.7025 -11.3125 14.1875 C-16.12951426 11.5863123 -19.75574822 10.5813089 -25.3125 11.1875 C-28.59505956 12.03700844 -28.59505956 12.03700844 -31.3125 14.1875 C-32.6325 16.8275 -33.9525 19.4675 -35.3125 22.1875 C-41.2525 22.1875 -47.1925 22.1875 -53.3125 22.1875 C-52.795983 13.92322794 -51.28482274 7.60901805 -45 1.875 C-32.68287718 -7.83099828 -13.3254984 -7.29131044 0 0 Z M-33.4375 42.3125 C-36.06536846 46.34189831 -35.92607128 48.43232256 -35.3125 53.1875 C-33.50086733 55.86181489 -32.43488923 56.14670359 -29.3125 57.1875 C-22.48700502 57.92702965 -16.9504348 57.28412888 -11.3125 53.1875 C-8.23501682 49.91767412 -8.15549523 47.19922427 -8.125 42.875 C-8.17291725 41.31198483 -8.23062945 39.74910485 -8.3125 38.1875 C-21.49604056 37.59048763 -21.49604056 37.59048763 -33.4375 42.3125 Z " fill="#101010" transform="translate(685.3125,482.8125)"/>
<path d="M0 0 C7.77543092 6.38024271 12.77580896 14.71387789 14.25 24.69921875 C14.68856283 29.59467636 14.94953181 33.51437277 13.75 38.3125 C-2.42 38.3125 -18.59 38.3125 -35.25 38.3125 C-33.94656976 45.57660383 -33.94656976 45.57660383 -31.25 52.3125 C-26.07513429 55.44878225 -19.40618401 55.60486393 -13.5625 54.8125 C-10.24498801 53.31023042 -9.39233958 52.50282157 -7.25 49.75 C-5.09536065 47.02983852 -4.51353466 46.39517754 -1.0625 45.3125 C3.91940799 45.3125 8.80481186 45.73123919 13.75 46.3125 C13.43614778 53.68802722 10.1823263 59.05002077 4.85546875 64.11328125 C-3.98302764 71.13875274 -13.75394251 72.98679028 -24.95703125 72.09765625 C-34.54183205 70.51276793 -42.28733921 66.42519465 -48.4921875 58.9140625 C-55.55204166 48.46547834 -57.58130147 36.6682516 -55.82421875 24.3203125 C-53.66312662 14.11147238 -48.95766434 5.34772592 -40.1640625 -0.54296875 C-27.92097081 -7.86383786 -11.99127047 -8.31908556 0 0 Z M-30.25 12.3125 C-33.25691531 15.64390258 -35.09575895 18.83178588 -35.5625 23.3125 C-35.459375 23.9725 -35.35625 24.6325 -35.25 25.3125 C-34.26 25.3125 -33.27 25.3125 -32.25 25.3125 C-23.58333333 25.3125 -14.91666667 25.3125 -6.25 25.3125 C-6.36988281 24.06210937 -6.48976563 22.81171875 -6.61328125 21.5234375 C-6.68071533 20.82009277 -6.74814941 20.11674805 -6.81762695 19.39208984 C-7.60096017 15.62448264 -9.44871269 13.92703482 -12.25 11.3125 C-18.56499915 8.47719426 -24.34664298 8.7821756 -30.25 12.3125 Z " fill="#101010" transform="translate(608.25,483.6875)"/>
<path d="M0 0 C1.03825928 0.36279053 2.07651855 0.72558105 3.14624023 1.09936523 C4.3207373 1.50678955 5.49523437 1.91421387 6.70532227 2.33398438 C8.56133057 2.98935181 8.56133057 2.98935181 10.45483398 3.65795898 C11.74359269 4.10815134 13.03249398 4.5579357 14.3215332 5.00732422 C24.913345 8.70994084 35.46631855 12.52096926 45.99243164 16.40625 C47.61650713 16.99539997 49.25335656 17.54913318 50.89233398 18.09545898 C52.14163911 18.59531883 53.38744047 19.10397933 54.63061523 19.61889648 C73.83152765 27.90669503 73.83152765 27.90669503 94.00952148 26.29467773 C96.35098451 24.80333095 96.97007273 23.69755323 97.89233398 21.09545898 C98.20555337 18.83766488 98.20555337 18.83766488 98.14233398 16.53295898 C98.14749023 15.76854492 98.15264648 15.00413086 98.15795898 14.21655273 C98.01529008 11.79563137 98.01529008 11.79563137 95.89233398 9.09545898 C95.76733398 5.90795898 95.76733398 5.90795898 95.89233398 3.09545898 C98.11495781 1.69602917 99.55781465 1.09545898 102.20483398 1.09545898 C110.85744579 4.31503547 115.21709206 12.35537288 119.07348633 20.24633789 C122.80058486 28.66286869 124.46985039 38.30622762 121.13452148 47.09155273 C118.47831209 52.28120554 115.00367223 56.02081913 109.51733398 57.91577148 C90.78416821 62.21786479 72.00299433 51.1195737 55.45214844 43.53442383 C51.82113705 41.7340172 51.82113705 41.7340172 47.89233398 41.09545898 C47.89233398 40.43545898 47.89233398 39.77545898 47.89233398 39.09545898 C46.58401611 38.67901123 46.58401611 38.67901123 45.24926758 38.25415039 C42.12143939 37.17453784 39.18377805 35.94246139 36.18139648 34.55639648 C35.10905762 34.06220215 34.03671875 33.56800781 32.93188477 33.05883789 C31.80508301 32.53467285 30.67828125 32.01050781 29.51733398 31.47045898 C28.35572754 30.93211426 27.19412109 30.39376953 25.99731445 29.83911133 C18.37784783 26.29268457 10.81211244 22.66095222 3.32592773 18.84155273 C1.01615037 17.66695606 -1.30453521 16.51359235 -3.63500977 15.38061523 C-5.26116211 14.58977539 -5.26116211 14.58977539 -6.92016602 13.78295898 C-7.85473633 13.33307617 -8.78930664 12.88319336 -9.75219727 12.41967773 C-11.99677912 11.15779838 -13.51730461 10.11060748 -15.10766602 8.09545898 C-15.75156845 2.94423947 -15.75156845 2.94423947 -13.73266602 0.28295898 C-9.26301262 -2.98332619 -5.07612372 -1.47749536 0 0 Z " fill="#101010" transform="translate(144.107666015625,470.904541015625)"/>
<path d="M0 0 C6.6 0.33 13.2 0.66 20 1 C20.97582031 3.866875 21.95164062 6.73375 22.95703125 9.6875 C23.90994403 12.48431242 24.86327727 15.28098119 25.81665039 18.07763672 C26.47561834 20.01140635 27.13415364 21.94532346 27.79223633 23.87939453 C28.74184457 26.66999195 29.69304168 29.46004357 30.64453125 32.25 C30.9352803 33.10553467 31.22602936 33.96106934 31.52558899 34.8425293 C33.26294864 39.93087926 35.08765374 44.97470864 37 50 C37.24121582 49.2157666 37.48243164 48.4315332 37.73095703 47.62353516 C45.87242811 21.18601447 45.87242811 21.18601447 49.5 10.3125 C49.74250488 9.58434082 49.98500977 8.85618164 50.23486328 8.10595703 C51.86263559 3.27472882 51.86263559 3.27472882 53 1 C62.9 0.505 62.9 0.505 73 0 C74 2 74 2 73.56234741 3.75132751 C73.29733429 4.45850418 73.03232117 5.16568085 72.75927734 5.89428711 C72.46033569 6.70336517 72.16139404 7.51244324 71.85339355 8.34603882 C71.51763306 9.23086945 71.18187256 10.11570007 70.8359375 11.02734375 C70.32045349 12.4133226 70.32045349 12.4133226 69.79455566 13.82730103 C68.66210135 16.86685525 67.5188469 19.90221653 66.375 22.9375 C65.59199202 25.02898399 64.80960649 27.12070111 64.02783203 29.21264648 C62.83897346 32.39303863 61.64933322 35.57312095 60.45651245 38.75202942 C58.00727561 45.28266646 55.59545784 51.82546389 53.21875 58.3828125 C52.3699927 60.71287136 51.5204798 63.04265326 50.67071533 65.37234497 C50.14890979 66.808581 49.63020321 68.24594755 49.1149292 69.68453979 C39.40250963 96.76957927 39.40250963 96.76957927 29 102 C24.43352312 103.8547315 20.60192549 104.24458414 15.6875 104.1875 C14.45386719 104.18105469 13.22023438 104.17460938 11.94921875 104.16796875 C9 104 9 104 8 103 C7.92686433 100.46950598 7.90752473 97.96695163 7.9375 95.4375 C7.94201172 94.72658203 7.94652344 94.01566406 7.95117188 93.28320312 C7.96299136 91.52209987 7.98092737 89.76103964 8 88 C11.32373431 86.89208856 14.37328682 86.6051599 17.84375 86.28125 C20.17879829 86.04643927 20.17879829 86.04643927 23 85 C25.86880511 80.0173385 25.66054419 74.67654033 24.32421875 69.26171875 C23.59620825 66.82236602 22.82859168 64.40686154 22 62 C21.01 62 20.02 62 19 62 C18.93941406 60.96101562 18.87882813 59.92203125 18.81640625 58.8515625 C18.07865906 53.00347262 15.82868713 47.7093028 13.67858887 42.25604248 C12.92687268 40.34802558 12.18689421 38.43583415 11.45019531 36.52197266 C10.45187044 33.92891311 9.45068432 31.33699721 8.44677734 28.74609375 C6.34154344 23.30371181 4.27910485 17.84621211 2.25 12.375 C1.90316162 11.46411621 1.55632324 10.55323242 1.19897461 9.61474609 C0.89096924 8.78023926 0.58296387 7.94573242 0.265625 7.0859375 C-0.00475586 6.3645459 -0.27513672 5.6431543 -0.55371094 4.89990234 C-1 3 -1 3 0 0 Z M20 59 C21 61 21 61 21 61 Z " fill="#111110" transform="translate(862,478)"/>
<path d="M0 0 C6.26380351 4.90009721 9.15285585 10.57524985 10.17382812 18.43579102 C10.9443527 29.28259949 10.91738336 40.0999264 10.8671875 50.96875 C10.86215906 52.88020715 10.85759854 54.79166559 10.85351562 56.703125 C10.84262438 61.33336587 10.82543501 65.96354323 10.8046875 70.59375 C4.09305812 71.47396369 -2.42937231 71.70756955 -9.1953125 71.59375 C-9.20117874 71.0204747 -9.20704498 70.4471994 -9.21308899 69.85655212 C-9.27720615 63.86995039 -9.36167251 57.88387715 -9.45776367 51.89770508 C-9.49094218 49.66600529 -9.51899598 47.43422302 -9.54174805 45.20239258 C-9.57542376 41.98743666 -9.62774735 38.7732318 -9.68359375 35.55859375 C-9.68998367 34.56665512 -9.6963736 33.57471649 -9.70295715 32.55271912 C-9.83913303 26.08282362 -10.36419509 20.58960916 -15.0078125 15.67578125 C-17.86483029 14.26257781 -20.01787176 14.22961659 -23.1953125 14.28125 C-24.7421875 14.28705078 -24.7421875 14.28705078 -26.3203125 14.29296875 C-29.16939658 14.59103869 -30.82071453 15.02855224 -33.1953125 16.59375 C-37.92764288 23.77988132 -37.3461523 32.69217319 -37.29296875 41.00390625 C-37.29084633 42.28327309 -37.29084633 42.28327309 -37.28868103 43.58848572 C-37.28314189 46.27777816 -37.2706013 48.96698328 -37.2578125 51.65625 C-37.25278962 53.49413941 -37.2482281 55.33203015 -37.24414062 57.16992188 C-37.2331925 61.64456422 -37.21597089 66.11914238 -37.1953125 70.59375 C-44.06917144 71.65126676 -50.03468638 71.59375 -57.1953125 71.59375 C-57.1953125 46.84375 -57.1953125 22.09375 -57.1953125 -3.40625 C-50.5953125 -3.40625 -43.9953125 -3.40625 -37.1953125 -3.40625 C-36.8653125 -1.42625 -36.5353125 0.55375 -36.1953125 2.59375 C-35.51984375 2.17222656 -34.844375 1.75070312 -34.1484375 1.31640625 C-33.25640625 0.76855469 -32.364375 0.22070312 -31.4453125 -0.34375 C-30.12273437 -1.16166016 -30.12273437 -1.16166016 -28.7734375 -1.99609375 C-19.95418813 -6.8199559 -8.2671598 -5.29568955 0 0 Z " fill="#101010" transform="translate(534.1953125,482.40625)"/>
<path d="M0 0 C0 4.95 0 9.9 0 15 C-2.97511858 16.48755929 -5.4995498 15.57950446 -8.7109375 15.05859375 C-11.4936312 14.98736439 -12.77294209 15.32241271 -15 17 C-15.91599427 19.40404738 -15.91599427 19.40404738 -16.25 22.125 C-16.4975 23.73375 -16.745 25.3425 -17 27 C-11.39 27 -5.78 27 0 27 C0.020625 29.619375 0.04125 32.23875 0.0625 34.9375 C0.071604 35.7637085 0.08070801 36.58991699 0.09008789 37.44116211 C0.09723945 39.29433759 0.0502852 41.14749308 0 43 C-0.33 43.33 -0.66 43.66 -1 44 C-6.28 43.67 -11.56 43.34 -17 43 C-16.67 62.14 -16.34 81.28 -16 101 C-18.296537 102.1482685 -19.58313167 102.11561175 -22.1328125 102.09765625 C-22.93847656 102.09443359 -23.74414062 102.09121094 -24.57421875 102.08789062 C-25.83685547 102.07532227 -25.83685547 102.07532227 -27.125 102.0625 C-27.97449219 102.05798828 -28.82398438 102.05347656 -29.69921875 102.04882812 C-31.79950909 102.03702874 -33.8997633 102.01909306 -36 102 C-37.01781528 98.94655415 -37.12097241 96.89716208 -37.11352539 93.70239258 C-37.11344986 92.62149857 -37.11337433 91.54060455 -37.11329651 90.42695618 C-37.10813522 89.26125595 -37.10297394 88.09555573 -37.09765625 86.89453125 C-37.0962413 85.70018967 -37.09482635 84.50584808 -37.09336853 83.27531433 C-37.0877635 79.45435092 -37.07521011 75.63344575 -37.0625 71.8125 C-37.05748565 69.22461022 -37.05292263 66.63671952 -37.04882812 64.04882812 C-37.03779242 57.69919625 -37.02052437 51.34960801 -37 45 C-40.96 44.01 -44.92 43.02 -49 42 C-48.34 40.35 -47.68 38.7 -47 37 C-47.66 36.67 -48.32 36.34 -49 36 C-48.34 36 -47.68 36 -47 36 C-47 33.03 -47 30.06 -47 27 C-43.7 27 -40.4 27 -37 27 C-36.97421875 26.154375 -36.9484375 25.30875 -36.921875 24.4375 C-36.53608796 16.72175916 -36.01041488 10.29687308 -30.578125 4.4765625 C-22.29554677 -2.90944798 -10.01705442 -4.00682177 0 0 Z " fill="#101010" transform="translate(858,452)"/>
<path d="M0 0 C2.31916867 3.66653079 2.24200138 6.78760449 2.22705078 11.06347656 C2.22734283 11.76631775 2.22763489 12.46915894 2.22793579 13.19329834 C2.22654592 15.50920084 2.21100113 17.82477892 2.1953125 20.140625 C2.19158115 21.74916406 2.18873475 23.35770541 2.18673706 24.96624756 C2.17911023 29.19460351 2.15946994 33.4228215 2.1373291 37.65112305 C2.11685018 41.96791722 2.10773097 46.28473373 2.09765625 50.6015625 C2.07622312 59.06777156 2.04209868 67.5338686 2 76 C-2.15696437 76.89637326 -5.9890535 77.13391411 -10.25 77.125 C-11.49265625 77.12757813 -12.7353125 77.13015625 -14.015625 77.1328125 C-17 77 -17 77 -18 76 C-18.09443335 73.69946165 -18.11742128 71.39597827 -18.11352539 69.09350586 C-18.11367142 68.37159561 -18.11381744 67.64968536 -18.1139679 66.90589905 C-18.11326869 64.50885053 -18.10547595 62.11187877 -18.09765625 59.71484375 C-18.0957921 58.05717511 -18.09436818 56.39950593 -18.09336853 54.74183655 C-18.08954312 50.37045786 -18.07971265 45.99911219 -18.06866455 41.62774658 C-18.05845092 37.17045539 -18.05387101 32.71315889 -18.04882812 28.25585938 C-18.0380904 19.50389107 -18.02101371 10.75194964 -18 2 C-16.17662109 1.90912109 -16.17662109 1.90912109 -14.31640625 1.81640625 C-12.73175772 1.73201668 -11.14712298 1.6473679 -9.5625 1.5625 C-8.76005859 1.52318359 -7.95761719 1.48386719 -7.13085938 1.44335938 C-3.24760439 1.5945704 -3.24760439 1.5945704 0 0 Z " fill="#101010" transform="translate(801,477)"/>
<path d="M0 0 C3.15237657 1.81093973 4.56641269 3.25107647 6.375 6.375 C7.17298003 9.72651613 7.03027506 11.70311982 6 15 C2.69589207 18.81243222 0.76024574 20.86715126 -4.3125 21.25 C-8.27746452 20.98118885 -9.93630287 20.46797825 -13 18 C-15.54357983 14.94770421 -16.00903645 13.50604099 -15.9375 9.5 C-14.92483745 5.71939315 -13.70604174 3.788043 -11 1 C-7.53472176 -0.73263912 -3.78892972 -0.4719774 0 0 Z " fill="#111111" transform="translate(798,450)"/>
<path d="M0 0 C1.13993062 0.07087043 2.27986124 0.14174086 3.45433521 0.21475887 C15.3030158 0.91597688 27.09853751 1.13858477 38.96557617 1.11352539 C40.87968443 1.1132424 42.7937928 1.11340343 44.707901 1.1139679 C49.83885342 1.11425152 54.96978184 1.108426 60.10072875 1.10139394 C65.48717991 1.09508712 70.87363178 1.09455086 76.26008606 1.09336853 C86.43092434 1.09027662 96.60175171 1.08209245 106.77258521 1.07201904 C118.36409763 1.06079097 129.95561061 1.05533068 141.54712713 1.05032361 C165.36475744 1.03990775 189.1823781 1.02235029 213 1 C212.01523685 2.47856331 212.01523685 2.47856331 210 4 C207.17739078 4.28281502 204.57835163 4.38035756 201.75621033 4.34298706 C200.48041378 4.34388169 200.48041378 4.34388169 199.17884356 4.34479439 C196.31813861 4.34304433 193.45801707 4.31966219 190.59741211 4.29638672 C188.55098278 4.29059167 186.50454947 4.28608028 184.45811462 4.28276062 C178.89209659 4.26967051 173.32633872 4.23744231 167.7604301 4.20104742 C161.94510759 4.16538513 156.12972902 4.14441181 150.31434631 4.12112427 C140.54827144 4.07955065 130.78232639 4.02526103 121.01635742 3.96386719 C109.71185783 3.89299185 98.4074164 3.84375335 87.10276216 3.80575168 C77.41011453 3.77260854 67.71757159 3.72785376 58.02502066 3.67330945 C52.23018889 3.64070916 46.43541314 3.612185 40.64051628 3.59408188 C35.19448038 3.57641751 29.74872347 3.54422002 24.30283546 3.50060463 C22.29929303 3.4869656 20.29570834 3.47846759 18.29212189 3.47536659 C15.56670953 3.47032668 12.84206318 3.44704633 10.11680603 3.41891479 C9.31536083 3.42171601 8.51391562 3.42451723 7.6881842 3.42740333 C5.48612881 3.39314079 5.48612881 3.39314079 2 3 C1.34 2.01 0.68 1.02 0 0 Z " fill="#2A2A2B" transform="translate(115,566)"/>
<path d="M0 0 C0.33 0 0.66 0 1 0 C2.07483628 5.22913428 2.12930634 10.24506799 2.09765625 15.5546875 C2.0962413 16.45623566 2.09482635 17.35778381 2.09336853 18.28665161 C2.0877974 21.149469 2.07525026 24.01220648 2.0625 26.875 C2.05748127 28.82291553 2.05291901 30.7708323 2.04882812 32.71875 C2.03783742 37.47919718 2.02059277 42.23958507 2 47 C-0.97 46.67 -3.94 46.34 -7 46 C-7 45.67 -7 45.34 -7 45 C-4.69 45 -2.38 45 0 45 C0 30.15 0 15.3 0 0 Z " fill="#20201F" transform="translate(543,506)"/>
<path d="M0 0 C0.66 0.66 1.32 1.32 2 2 C4.6215642 2.27827252 4.6215642 2.27827252 7.6640625 2.1953125 C9.34628906 2.18564453 9.34628906 2.18564453 11.0625 2.17578125 C12.238125 2.15902344 13.41375 2.14226562 14.625 2.125 C15.80835938 2.11597656 16.99171875 2.10695313 18.2109375 2.09765625 C21.14082523 2.07402812 24.0703134 2.04108514 27 2 C27 2.33 27 2.66 27 3 C24.36 3.33 21.72 3.66 19 4 C19 4.33 19 4.66 19 5 C12.4 5 5.8 5 -1 5 C-0.67 3.35 -0.34 1.7 0 0 Z " fill="#1E1E1E" transform="translate(574,506)"/>
<path d="M0 0 C0.66 0.33 1.32 0.66 2 1 C2.33 8.26 2.66 15.52 3 23 C-1.40767604 24.10191901 -2.8922935 23.58706842 -7 22 C-7 21.67 -7 21.34 -7 21 C-4.69 21 -2.38 21 0 21 C0 14.07 0 7.14 0 0 Z " fill="#1C1C1C" transform="translate(695,530)"/>
<path d="M0 0 C0 0.66 0 1.32 0 2 C-1.423125 2.12375 -1.423125 2.12375 -2.875 2.25 C-4.421875 2.62125 -4.421875 2.62125 -6 3 C-7.08431094 4.74867483 -7.08431094 4.74867483 -8 7 C-9.49834725 8.54815381 -11.05873802 9.99661513 -12.66015625 11.4375 C-14.21775172 13.25393787 -14.59277139 14.66723365 -15 17 C-15.66 17 -16.32 17 -17 17 C-17.33 17.99 -17.66 18.98 -18 20 C-17.73104837 13.54516077 -15.49999742 9.61587718 -11 5 C-7.45932577 2.23426579 -4.57293396 0 0 0 Z " fill="#191819" transform="translate(651,480)"/>
<path d="M0 0 C0.268125 0.556875 0.53625 1.11375 0.8125 1.6875 C1.204375 2.450625 1.59625 3.21375 2 4 C2.391875 4.845625 2.78375 5.69125 3.1875 6.5625 C5.60704847 9.81637553 8.17206417 11.0207606 12 12 C15.66095539 12.50750795 19.30996319 12.80648993 23 13 C23 13.33 23 13.66 23 14 C15.47821808 15.15807923 9.78765564 15.9911826 3.390625 11.421875 C2 10 2 10 1 7 C0.34 7 -0.32 7 -1 7 C-0.67 4.69 -0.34 2.38 0 0 Z " fill="#1C1C1D" transform="translate(416,524)"/>
<path d="M0 0 C0.87785156 0.13535156 1.75570312 0.27070312 2.66015625 0.41015625 C7.29955456 1.22324668 10.32092405 1.91866866 14 5 C4.25175813 4.20096378 -5.353358 2.57475983 -15 1 C-15 0.67 -15 0.34 -15 0 C-9.73723972 -1.21448314 -5.26050402 -0.81643022 0 0 Z " fill="#201F1F" transform="translate(195,540)"/>
<path d="M0 0 C0.99 0 1.98 0 3 0 C5.0320167 4.0640334 5.36342902 6.63702712 4 11 C1.80970208 13.52726683 -0.00025739 15.50012869 -3 17 C-5.3329866 17.04022391 -7.66706666 17.04320247 -10 17 C-10 16.67 -10 16.34 -10 16 C-8.02 16 -6.04 16 -4 16 C-4 15.34 -4 14.68 -4 14 C-2.824375 13.7834375 -2.824375 13.7834375 -1.625 13.5625 C1.15156763 12.28463143 1.15156763 12.28463143 1.77734375 9.86328125 C2.26835609 7.58025309 2.68112401 5.31304073 3 3 C2.34 3 1.68 3 1 3 C0.67 2.01 0.34 1.02 0 0 Z " fill="#1D1D1C" transform="translate(800,454)"/>
<path d="M0 0 C7.06608191 -0.13794954 13.97360585 0.25194283 21 1 C21 1.33 21 1.66 21 2 C16.79262561 2.36622895 12.58402896 2.71584777 8.375 3.0625 C7.18519531 3.16626953 5.99539063 3.27003906 4.76953125 3.37695312 C3.03896484 3.51713867 3.03896484 3.51713867 1.2734375 3.66015625 C-0.31331787 3.79369507 -0.31331787 3.79369507 -1.93212891 3.92993164 C-5.09100228 4.00207844 -7.90771154 3.61805241 -11 3 C-11 2.67 -11 2.34 -11 2 C-5.555 1.505 -5.555 1.505 0 1 C0 0.67 0 0.34 0 0 Z " fill="#282828" transform="translate(307,556)"/>
<path d="M0 0 C0.33 0.66 0.66 1.32 1 2 C-0.53720703 2.07347656 -0.53720703 2.07347656 -2.10546875 2.1484375 C-3.4661706 2.22351071 -4.82684644 2.29905655 -6.1875 2.375 C-6.86103516 2.4059375 -7.53457031 2.436875 -8.22851562 2.46875 C-12.22621773 2.70276183 -15.35282157 3.38482098 -19 5 C-21.8125 5.125 -21.8125 5.125 -24 5 C-17.03894383 -1.12572943 -8.73588846 -0.23646014 0 0 Z " fill="#1C1C1B" transform="translate(594,478)"/>
<path d="M0 0 C-0.99 0 -1.98 0 -3 0 C-3 0.66 -3 1.32 -3 2 C-9.43013467 3.73955334 -15.34949576 4.24991456 -22 4 C-22 3.34 -22 2.68 -22 2 C-19.08483516 1.46915208 -16.16839443 0.95000945 -13.25 0.4375 C-12.425 0.28603516 -11.6 0.13457031 -10.75 -0.02148438 C-9.95078125 -0.16005859 -9.1515625 -0.29863281 -8.328125 -0.44140625 C-7.5949707 -0.57232666 -6.86181641 -0.70324707 -6.10644531 -0.83813477 C-3.83766713 -1.01247412 -2.16221421 -0.66874807 0 0 Z " fill="#1C1C1C" transform="translate(354,564)"/>
<path d="M0 0 C0.268125 0.556875 0.53625 1.11375 0.8125 1.6875 C2.00699665 4.08933398 2.00699665 4.08933398 3.625 6.625 C5 9 5 9 5 11 C6.1446875 11.433125 6.1446875 11.433125 7.3125 11.875 C10 13 10 13 13 15 C10.70384875 15.80239132 9.48763591 16.19190833 7.18359375 15.28515625 C2.96939876 12.33427699 0.98089388 9.739656 -0.6875 4.8671875 C-1 3 -1 3 0 0 Z " fill="#191919" transform="translate(572,525)"/>
<path d="M0 0 C0.66 0 1.32 0 2 0 C3.4083804 4.85108805 2.6621046 9.07099906 2 14 C-1.63 14 -5.26 14 -9 14 C-9 13.67 -9 13.34 -9 13 C-6.03 13 -3.06 13 0 13 C0 8.71 0 4.42 0 0 Z " fill="#080808" transform="translate(855,480)"/>
<path d="M0 0 C0 0.33 0 0.66 0 1 C-2.04071515 1.33910994 -4.08262621 1.67102704 -6.125 2 C-7.83042969 2.2784375 -7.83042969 2.2784375 -9.5703125 2.5625 C-12.76137602 2.96956049 -15.78817791 3.07809902 -19 3 C-17 0 -17 0 -14 -0.75 C-9.29970355 -1.25679729 -4.66488206 -0.61009524 0 0 Z " fill="#1F1F1F" transform="translate(351,577)"/>
<path d="M0 0 C1.17949219 0.10183594 2.35898437 0.20367188 3.57421875 0.30859375 C4.47785156 0.39238281 5.38148438 0.47617187 6.3125 0.5625 C6.3125 1.5525 6.3125 2.5425 6.3125 3.5625 C4.20771396 3.44840318 2.10365423 3.32084639 0 3.1875 C-1.17175781 3.11789062 -2.34351563 3.04828125 -3.55078125 2.9765625 C-6.6875 2.5625 -6.6875 2.5625 -9.6875 0.5625 C-6.14075997 -0.61974668 -3.71227005 -0.33079634 0 0 Z " fill="#1C1B1B" transform="translate(585.6875,552.4375)"/>
<path d="M0 0 C-1.16723633 1.49536133 -1.16723633 1.49536133 -3 3 C-5.4519043 3.2487793 -5.4519043 3.2487793 -8.32421875 3.07421875 C-9.35224609 3.01943359 -10.38027344 2.96464844 -11.43945312 2.90820312 C-13.04723633 2.79895508 -13.04723633 2.79895508 -14.6875 2.6875 C-15.77095703 2.62626953 -16.85441406 2.56503906 -17.97070312 2.50195312 C-20.64828378 2.3486115 -23.32415282 2.18075343 -26 2 C-26 1.67 -26 1.34 -26 1 C-23.16681141 0.83049299 -20.33349012 0.66432466 -17.5 0.5 C-16.70851563 0.45230469 -15.91703125 0.40460937 -15.1015625 0.35546875 C-10.057819 0.06607363 -5.05202732 -0.04634887 0 0 Z " fill="#222222" transform="translate(328,567)"/>
<path d="M0 0 C6.09781001 -0.22084624 11.21642935 -0.01167675 17 2 C17 2.33 17 2.66 17 3 C15.25181409 3.22304441 13.50129677 3.4278645 11.75 3.625 C10.77546875 3.74101563 9.8009375 3.85703125 8.796875 3.9765625 C5.81652977 4.00153746 4.46871707 3.60575845 2 2 C1.34 1.34 0.68 0.68 0 0 Z " fill="#201F20" transform="translate(189,528)"/>
<path d="M0 0 C0.83265381 0.04713135 1.66530762 0.0942627 2.52319336 0.14282227 C3.871875 0.21533203 3.871875 0.21533203 5.24780273 0.28930664 C6.19333008 0.34538086 7.13885742 0.40145508 8.11303711 0.45922852 C9.53712891 0.53753906 9.53712891 0.53753906 10.98999023 0.61743164 C13.34380663 0.74754209 15.6972441 0.88251963 18.05053711 1.02172852 C17.72053711 1.68172852 17.39053711 2.34172852 17.05053711 3.02172852 C11.44053711 3.02172852 5.83053711 3.02172852 0.05053711 3.02172852 C0.05053711 4.01172852 0.05053711 5.00172852 0.05053711 6.02172852 C-0.60946289 6.02172852 -1.26946289 6.02172852 -1.94946289 6.02172852 C-2.33165056 4.36558194 -2.66341391 2.69715827 -2.94946289 1.02172852 C-1.94946289 0.02172852 -1.94946289 0.02172852 0 0 Z " fill="#191919" transform="translate(863.949462890625,477.978271484375)"/>
<path d="M0 0 C0.69287109 0.00451172 1.38574219 0.00902344 2.09960938 0.01367188 C3.79561068 0.02536844 5.49156703 0.04330076 7.1875 0.0625 C1.14823075 4.0886795 -5.91316745 3.19148169 -12.8125 2.0625 C-12.8125 1.7325 -12.8125 1.4025 -12.8125 1.0625 C-8.52952469 0.00630997 -4.38264354 -0.05452092 0 0 Z " fill="#191818" transform="translate(659.8125,552.9375)"/>
<path d="M0 0 C1.9375 0.75 1.9375 0.75 4 2 C4.33 3.32 4.66 4.64 5 6 C-0.28 6 -5.56 6 -11 6 C-11 5.34 -11 4.68 -11 4 C-5.555 3.505 -5.555 3.505 0 3 C0 2.01 0 1.02 0 0 Z " fill="#171717" transform="translate(773,548)"/>
<path d="M0 0 C0.66 0 1.32 0 2 0 C1.67 0.99 1.34 1.98 1 3 C0.34 3 -0.32 3 -1 3 C-1 3.66 -1 4.32 -1 5 C-2.6796875 6.2890625 -2.6796875 6.2890625 -4.875 7.625 C-5.59429687 8.07101562 -6.31359375 8.51703125 -7.0546875 8.9765625 C-9 10 -9 10 -11 10 C-11 9.34 -11 8.68 -11 8 C-8.84765625 6.30859375 -8.84765625 6.30859375 -6.0625 4.4375 C-2.88197669 2.40497959 -2.88197669 2.40497959 0 0 Z " fill="#171616" transform="translate(462,542)"/>
<path d="M0 0 C0.33 0 0.66 0 1 0 C1.33 5.61 1.66 11.22 2 17 C-0.66526534 13.00210198 -1.13742223 11.20142423 -1.125 6.4375 C-1.12757813 5.44621094 -1.13015625 4.45492187 -1.1328125 3.43359375 C-1 1 -1 1 0 0 Z " fill="#1D1D1E" transform="translate(553,510)"/>
<path d="M0 0 C5.28 0 10.56 0 16 0 C9.93442607 3.03278696 5.64252709 3.19565488 -1 2 C-0.67 1.34 -0.34 0.68 0 0 Z " fill="#0B0A0A" transform="translate(320,578)"/>
<path d="M0 0 C-0.33 0.66 -0.66 1.32 -1 2 C-6.98833405 3.53718396 -12.96723499 2.86182357 -19 2 C-19 1.67 -19 1.34 -19 1 C-12.63849395 0.34513908 -6.39628979 -0.12068471 0 0 Z " fill="#242424" transform="translate(336,543)"/>
<path d="M0 0 C1.61648437 0.30550781 1.61648437 0.30550781 3.265625 0.6171875 C4.08546875 0.78476562 4.9053125 0.95234375 5.75 1.125 C5.75 1.785 5.75 2.445 5.75 3.125 C0.47 2.465 -4.81 1.805 -10.25 1.125 C-5.78335305 -1.10832348 -4.70964853 -0.92145297 0 0 Z " fill="#1B1A1A" transform="translate(221.25,544.875)"/>
<path d="M0 0 C1.75070517 0.11470137 3.50057536 0.24219028 5.25 0.375 C6.22453125 0.44460938 7.1990625 0.51421875 8.203125 0.5859375 C10.89633189 0.98465249 12.66963279 1.63507063 15 3 C9.28728072 4.6112798 5.31329355 3.08989546 0 1 C0 0.67 0 0.34 0 0 Z " fill="#1B1A1A" transform="translate(413,551)"/>
<path d="M0 0 C-6.23182639 1.03863773 -11.74692761 0.83288874 -18 0 C-18 -0.33 -18 -0.66 -18 -1 C-4.8 -3.2 -4.8 -3.2 0 0 Z " fill="#1A1A1A" transform="translate(253,529)"/>
<path d="M0 0 C0.33 0.99 0.66 1.98 1 3 C3.97851562 2.90234375 3.97851562 2.90234375 6.95703125 2.8046875 C9 3 9 3 12 5 C7.66726186 5.92844389 4.33273814 5.92844389 0 5 C0 3.35 0 1.7 0 0 Z " fill="#0A0A0A" transform="translate(679,548)"/>
<path d="M0 0 C0.99 0.33 1.98 0.66 3 1 C1.68 2.65 0.36 4.3 -1 6 C-0.34 7.32 0.32 8.64 1 10 C-0.32 9.34 -1.64 8.68 -3 8 C-3.36923077 3.44615385 -3.36923077 3.44615385 -1.5 1.1875 C-1.005 0.795625 -0.51 0.40375 0 0 Z " fill="#1A1A19" transform="translate(749,507)"/>
<path d="M0 0 C3.94120709 0.56302958 6.7508723 1.6791945 10 4 C10 4.66 10 5.32 10 6 C6.51329166 4.8905928 3.22515763 3.73662334 0 2 C0 1.34 0 0.68 0 0 Z " fill="#181717" transform="translate(182,504)"/>
<path d="M0 0 C0.66 0.66 1.32 1.32 2 2 C-0.31 4.64 -2.62 7.28 -5 10 C-5.99 9.67 -6.98 9.34 -8 9 C-6.8553125 7.88625 -6.8553125 7.88625 -5.6875 6.75 C-3.5606298 4.5736677 -1.7440044 2.47832204 0 0 Z " fill="#181817" transform="translate(751,481)"/>
<path d="M0 0 C0.66 1.32 1.32 2.64 2 4 C4.64 4 7.28 4 10 4 C8 6 8 6 6.0546875 6.1953125 C4.03645833 6.13020833 2.01822917 6.06510417 0 6 C0 4.02 0 2.04 0 0 Z " fill="#1C1C1B" transform="translate(449,477)"/>
<path d="M0 0 C-3.2605096 3.2605096 -6.89083745 3.05467405 -11.3125 3.0625 C-13.1378125 3.0315625 -13.1378125 3.0315625 -15 3 C-15 2.67 -15 2.34 -15 2 C-9.75614911 0.2520497 -5.52677733 -0.19392201 0 0 Z " fill="#1F1F1E" transform="translate(444,553)"/>
<path d="M0 0 C0.33 0 0.66 0 1 0 C2.51708428 9.41002278 2.51708428 9.41002278 0 14 C-0.33 14 -0.66 14 -1 14 C-0.67 9.38 -0.34 4.76 0 0 Z " fill="#2F2F2F" transform="translate(87,539)"/>
<path d="M0 0 C5.61 0.33 11.22 0.66 17 1 C17 1.33 17 1.66 17 2 C14.9190156 2.24959784 12.83499188 2.47394907 10.75 2.6875 C9.58984375 2.81511719 8.4296875 2.94273437 7.234375 3.07421875 C4 3 4 3 0 0 Z " fill="#272827" transform="translate(422,536)"/>
<path d="M0 0 C1.48280196 0.78483659 2.9611498 1.57809334 4.4375 2.375 C5.67306641 3.03628906 5.67306641 3.03628906 6.93359375 3.7109375 C9 5 9 5 10 7 C5.61537866 6.49890042 3.1999003 5.01704885 0 2 C0 1.34 0 0.68 0 0 Z " fill="#191919" transform="translate(309,455)"/>
<path d="M0 0 C0 0.66 0 1.32 0 2 C-1.258125 2.04125 -2.51625 2.0825 -3.8125 2.125 C-4.52019531 2.14820313 -5.22789063 2.17140625 -5.95703125 2.1953125 C-8 2 -8 2 -11 0 C-7.18243176 -1.37432457 -3.92744671 -0.67975039 0 0 Z " fill="#242423" transform="translate(133,417)"/>
<path d="M0 0 C-0.33 0.99 -0.66 1.98 -1 3 C-3.06640625 3.94921875 -3.06640625 3.94921875 -5.5625 4.6875 C-6.38878906 4.93886719 -7.21507812 5.19023438 -8.06640625 5.44921875 C-8.70449219 5.63097656 -9.34257812 5.81273437 -10 6 C-10 5.34 -10 4.68 -10 4 C-8.71086513 3.32845067 -7.41859796 2.66291141 -6.125 2 C-5.40570313 1.62875 -4.68640625 1.2575 -3.9453125 0.875 C-2 0 -2 0 0 0 Z " fill="#1E1D1D" transform="translate(373,568)"/>
<path d="M0 0 C0 0.66 0 1.32 0 2 C-6.93 1.505 -6.93 1.505 -14 1 C-14 0.67 -14 0.34 -14 0 C-9.02936879 -0.91297308 -4.97063121 -0.91297308 0 0 Z " fill="#232322" transform="translate(130,532)"/>
<path d="M0 0 C1.04976964 3.14930893 1.10131595 5.38814456 1.0625 8.6875 C1.05347656 9.68136719 1.04445313 10.67523437 1.03515625 11.69921875 C1.02355469 12.45847656 1.01195313 13.21773437 1 14 C-0.97179598 11.04230603 -1.36929854 9.83582038 -1.75 6.4375 C-1.84796875 5.65246094 -1.9459375 4.86742187 -2.046875 4.05859375 C-2 2 -2 2 0 0 Z " fill="#272727" transform="translate(100,541)"/>
<path d="M0 0 C0.66 0.99 1.32 1.98 2 3 C0.02 5.31 -1.96 7.62 -4 10 C-4.33 9.01 -4.66 8.02 -5 7 C-4.0409375 6.1028125 -4.0409375 6.1028125 -3.0625 5.1875 C-0.79689611 3.09189663 -0.79689611 3.09189663 0 0 Z " fill="#161616" transform="translate(616,539)"/>
<path d="M0 0 C3.3 0 6.6 0 10 0 C10 0.33 10 0.66 10 1 C2.57142857 3.14285714 2.57142857 3.14285714 -1 4 C-0.67 2.68 -0.34 1.36 0 0 Z " fill="#2A2A2A" transform="translate(397,524)"/>
<path d="M0 0 C0.66 0.33 1.32 0.66 2 1 C1.21625 1.5775 0.4325 2.155 -0.375 2.75 C-2.80047244 4.82897637 -3.85694417 6.09040333 -5 9 C-5.99 9 -6.98 9 -8 9 C-8 8.34 -8 7.68 -8 7 C-7.34 7 -6.68 7 -6 7 C-5.7525 6.401875 -5.505 5.80375 -5.25 5.1875 C-3.83629988 2.71352479 -2.34944617 1.56629745 0 0 Z " fill="#1F2020" transform="translate(640,513)"/>
<path d="M0 0 C0.33 0 0.66 0 1 0 C1.36923077 7.50769231 1.36923077 7.50769231 -0.5 10 C-0.995 10.33 -1.49 10.66 -2 11 C-3 9 -3 9 -2.44140625 6.8359375 C-2.15136719 6.02382813 -1.86132812 5.21171875 -1.5625 4.375 C-1.27503906 3.55773437 -0.98757813 2.74046875 -0.69140625 1.8984375 C-0.46324219 1.27195312 -0.23507812 0.64546875 0 0 Z " fill="#20201F" transform="translate(906,505)"/>
<path d="M0 0 C0.99 0 1.98 0 3 0 C2.01 3.3 1.02 6.6 0 10 C-0.66 9.01 -1.32 8.02 -2 7 C-1.125 3.3125 -1.125 3.3125 0 0 Z " fill="#191919" transform="translate(927,494)"/>
<path d="M0 0 C1.60875 0.928125 1.60875 0.928125 3.25 1.875 C5.79780984 3.3323679 8.35259355 4.72924491 11 6 C7.9993581 7.26950234 6.94815444 6.98068499 3.8125 5.8125 C1 4 1 4 0.125 1.8125 C0.08375 1.214375 0.0425 0.61625 0 0 Z " fill="#1D1D1D" transform="translate(421,487)"/>
<path d="M0 0 C-0.66 0 -1.32 0 -2 0 C-2 0.66 -2 1.32 -2 2 C-4.64 2.33 -7.28 2.66 -10 3 C-10 2.34 -10 1.68 -10 1 C-3.375 -1.125 -3.375 -1.125 0 0 Z " fill="#1E1E1E" transform="translate(358,539)"/>
<path d="M0 0 C0 3.61029169 -0.96092582 6.55806676 -2 10 C-2.33 9.34 -2.66 8.68 -3 8 C-3.66 7.67 -4.32 7.34 -5 7 C-1.125 1.125 -1.125 1.125 0 0 Z " fill="#1F1F1F" transform="translate(309,484)"/>
<path d="M0 0 C3.34373475 0.55728913 6.03312999 1.35173889 9 3 C9 3.66 9 4.32 9 5 C6.03 4.01 3.06 3.02 0 2 C0 1.34 0 0.68 0 0 Z " fill="#171716" transform="translate(148,488)"/>
<path d="M0 0 C3.78611227 0.54087318 5.55400767 2.11722332 8 5 C8 5.66 8 6.32 8 7 C4.2047869 5.50902342 2.38957269 3.24299151 0 0 Z " fill="#161516" transform="translate(607,485)"/>
<path d="M0 0 C3.77545388 1.09068668 6.47043472 1.9083091 9 5 C8.01 5.495 8.01 5.495 7 6 C3.9375 4.75 3.9375 4.75 1 3 C0.67 2.01 0.34 1.02 0 0 Z " fill="#1B1B1B" transform="translate(134,481)"/>
<path d="M0 0 C5.625 -0.25 5.625 -0.25 9 2 C9 2.66 9 3.32 9 4 C4.545 3.01 4.545 3.01 0 2 C0 1.34 0 0.68 0 0 Z " fill="#181818" transform="translate(435,468)"/>
<path d="M0 0 C4.83256305 0.41421969 6.82679218 2.46413986 10 6 C5.16743695 5.58578031 3.17320782 3.53586014 0 0 Z " fill="#181817" transform="translate(282,437)"/>
<path d="M0 0 C1.98 0 3.96 0 6 0 C6 0.66 6 1.32 6 2 C8.31 2 10.62 2 13 2 C13 2.33 13 2.66 13 3 C4.80743982 3.4726477 4.80743982 3.4726477 1.4375 1.5 C0.963125 1.005 0.48875 0.51 0 0 Z " fill="#191818" transform="translate(268,554)"/>
<path d="M0 0 C0.33 1.32 0.66 2.64 1 4 C-1.31 4.33 -3.62 4.66 -6 5 C-2.25 1.125 -2.25 1.125 0 0 Z " fill="#1F1F1E" transform="translate(678,544)"/>
<path d="M0 0 C5.875 4.625 5.875 4.625 7 8 C4.13792848 6.71700242 1.9754912 5.469364 0 3 C0 2.01 0 1.02 0 0 Z " fill="#191818" transform="translate(403,541)"/>
<path d="M0 0 C0 0.66 0 1.32 0 2 C0.99 2.33 1.98 2.66 3 3 C-1.29 2.67 -5.58 2.34 -10 2 C-10 1.67 -10 1.34 -10 1 C-6.56484998 0.37542727 -3.50935186 0 0 0 Z " fill="#252625" transform="translate(144,533)"/>
<path d="M0 0 C3.73487777 0.4979837 5.81237635 0.87491756 9 3 C9 3.66 9 4.32 9 5 C5.22454612 3.90931332 2.52956528 3.0916909 0 0 Z " fill="#181717" transform="translate(408,502)"/>
<path d="M0 0 C1.52299523 2.93720508 2.80100302 5.9168649 4 9 C2.68 8.67 1.36 8.34 0 8 C-0.79953138 4.71303767 -1.09658936 3.28976808 0 0 Z " fill="#1B1A1A" transform="translate(417,478)"/>
<path d="M0 0 C0.33 0 0.66 0 1 0 C0.67 3.63 0.34 7.26 0 11 C-2 9 -2 9 -2.125 5.875 C-2.08375 4.92625 -2.0425 3.9775 -2 3 C-1.34 3 -0.68 3 0 3 C0 2.01 0 1.02 0 0 Z " fill="#242424" transform="translate(110,476)"/>
<path d="M0 0 C1.67542976 0.28604898 3.34385343 0.61781233 5 1 C5 1.99 5 2.98 5 4 C3.824375 3.9690625 3.824375 3.9690625 2.625 3.9375 C0.01885039 3.81315937 0.01885039 3.81315937 -2 5 C-1.125 1.125 -1.125 1.125 0 0 Z " fill="#1F1F1F" transform="translate(304,469)"/>
<path d="M0 0 C2.475 0.99 2.475 0.99 5 2 C5 2.66 5 3.32 5 4 C5.66 4 6.32 4 7 4 C7.33 4.99 7.66 5.98 8 7 C5.05043472 5.63055898 2.47531189 4.12169591 0 2 C0 1.34 0 0.68 0 0 Z " fill="#171616" transform="translate(148,451)"/>
<path d="M0 0 C4.455 2.97 4.455 2.97 9 6 C7.68 6.33 6.36 6.66 5 7 C2.25 4.6875 2.25 4.6875 0 2 C0 1.34 0 0.68 0 0 Z " fill="#212121" transform="translate(256,416)"/>
<path d="M0 0 C2.31 0.33 4.62 0.66 7 1 C7 1.33 7 1.66 7 2 C2.59085217 3.10228696 -1.48382401 3.07654536 -6 3 C-6 2.67 -6 2.34 -6 2 C-4.02 2 -2.04 2 0 2 C0 1.34 0 0.68 0 0 Z " fill="#242423" transform="translate(334,554)"/>
<path d="M0 0 C5.53846154 0.61538462 5.53846154 0.61538462 7.875 2.5625 C8.431875 3.2740625 8.431875 3.2740625 9 4 C8.01 4.495 8.01 4.495 7 5 C4.5249829 3.88568235 2.32116581 2.41849022 0 1 C0 0.67 0 0.34 0 0 Z " fill="#1C1D1C" transform="translate(636,549)"/>
<path d="M0 0 C3.96 0.33 7.92 0.66 12 1 C12 1.33 12 1.66 12 2 C7.545 2.495 7.545 2.495 3 3 C3 2.34 3 1.68 3 1 C2.01 0.67 1.02 0.34 0 0 Z " fill="#282827" transform="translate(168,525)"/>
<path d="M0 0 C3.68754757 0.49831724 5.60490662 1.10067643 8 4 C7.01 4.495 7.01 4.495 6 5 C3.96855359 4.06553465 1.96466413 3.06775224 0 2 C0 1.34 0 0.68 0 0 Z " fill="#191818" transform="translate(165,496)"/>
<path d="M0 0 C3.3 0.99 6.6 1.98 10 3 C8.02 3.99 8.02 3.99 6 5 C5.34 4.67 4.68 4.34 4 4 C4 3.34 4 2.68 4 2 C3.01 2.33 2.02 2.66 1 3 C0.67 2.01 0.34 1.02 0 0 Z " fill="#252525" transform="translate(154,475)"/>
<path d="M0 0 C2.25245881 2.68841859 3.88213958 4.64641875 5 8 C2.4636387 6.98545548 1.20648539 6.3146444 -0.3125 4 C-0.539375 3.34 -0.76625 2.68 -1 2 C-0.67 1.34 -0.34 0.68 0 0 Z " fill="#1B1B1B" transform="translate(784,462)"/>
<path d="M0 0 C1.485 0.99 1.485 0.99 3 2 C3 2.66 3 3.32 3 4 C3.66 4 4.32 4 5 4 C5.33 4.99 5.66 5.98 6 7 C5.01 7 4.02 7 3 7 C0.64276511 4.46815512 0 3.52809907 0 0 Z " fill="#161615" transform="translate(744,537)"/>
<path d="M0 0 C3.625 0.375 3.625 0.375 7 1 C6.34 1.66 5.68 2.32 5 3 C1.375 2.625 1.375 2.625 -2 2 C-1.34 1.34 -0.68 0.68 0 0 Z " fill="#20201E" transform="translate(134,469)"/>
<path d="M0 0 C0.66 0.33 1.32 0.66 2 1 C0.25 4.875 0.25 4.875 -2 6 C-2.66 6.99 -3.32 7.98 -4 9 C-3.38461538 3.46153846 -3.38461538 3.46153846 -1.4375 1.125 C-0.963125 0.75375 -0.48875 0.3825 0 0 Z " fill="#282827" transform="translate(264,452)"/>
<path d="M0 0 C1.32 0.33 2.64 0.66 4 1 C3.67 1.66 3.34 2.32 3 3 C2.01 2.67 1.02 2.34 0 2 C0 1.34 0 0.68 0 0 Z " fill="#383736" transform="translate(177,541)"/>
<path d="M0 0 C1.65 0 3.3 0 5 0 C5 0.33 5 0.66 5 1 C3.35 1 1.7 1 0 1 C0 0.67 0 0.34 0 0 Z " fill="#3C3B3C" transform="translate(232,582)"/>
<path d="M0 0 C1.65 0 3.3 0 5 0 C5 0.33 5 0.66 5 1 C3.35 1 1.7 1 0 1 C0 0.67 0 0.34 0 0 Z " fill="#383837" transform="translate(272,558)"/>
<path d="M0 0 C4 1 4 1 4 1 Z " fill="#3E3D3C" transform="translate(185,582)"/>
<path d="M0 0 C0.99 0.495 0.99 0.495 2 1 C1.01 1.495 1.01 1.495 0 2 C0 1.34 0 0.68 0 0 Z " fill="#3D3C3C" transform="translate(329,581)"/>
<path d="M0 0 C3 1 3 1 3 1 Z " fill="#353335" transform="translate(620,528)"/>
<path d="M0 0 C3 1 3 1 3 1 Z " fill="#373534" transform="translate(573,523)"/>
<path d="" fill="#373736" transform="translate(0,0)"/>
<path d="M0 0 C0.33 0.66 0.66 1.32 1 2 C0.34 1.67 -0.32 1.34 -1 1 C-0.67 0.67 -0.34 0.34 0 0 Z " fill="#363635" transform="translate(874,519)"/>
<path d="M0 0 C3 1 3 1 3 1 Z " fill="#383939" transform="translate(231,432)"/>
<path d="M0 0 C2 1 2 1 2 1 Z " fill="#3C3B3B" transform="translate(321,582)"/>
<path d="M0 0 C2 1 2 1 2 1 Z " fill="#3B3A3B" transform="translate(304,582)"/>
<path d="M0 0 C2 1 2 1 2 1 Z " fill="#3D3C3C" transform="translate(296,582)"/>
<path d="M0 0 C2 1 2 1 2 1 Z " fill="#3B3B3C" transform="translate(283,582)"/>
<path d="M0 0 C2 1 2 1 2 1 Z " fill="#3B3939" transform="translate(275,582)"/>
<path d="M0 0 C2 1 2 1 2 1 Z " fill="#3B3939" transform="translate(272,582)"/>
<path d="M0 0 C2 1 2 1 2 1 Z " fill="#3B3A3B" transform="translate(267,582)"/>
<path d="M0 0 C2 1 2 1 2 1 Z " fill="#3D3C3B" transform="translate(256,582)"/>
<path d="M0 0 C2 1 2 1 2 1 Z " fill="#3C3A3B" transform="translate(251,582)"/>
<path d="M0 0 C2 1 2 1 2 1 Z " fill="#3C3B3A" transform="translate(248,582)"/>
<path d="M0 0 C2 1 2 1 2 1 Z " fill="#3C3C3C" transform="translate(243,582)"/>
<path d="M0 0 C2 1 2 1 2 1 Z " fill="#3E3C3C" transform="translate(240,582)"/>
<path d="M0 0 C2 1 2 1 2 1 Z " fill="#3D3D3C" transform="translate(227,582)"/>
<path d="M0 0 C2 1 2 1 2 1 Z " fill="#3D3C3C" transform="translate(224,582)"/>
<path d="M0 0 C2 1 2 1 2 1 Z " fill="#3D3C3C" transform="translate(211,582)"/>
<path d="M0 0 C2 1 2 1 2 1 Z " fill="#3F3D3E" transform="translate(195,582)"/>
<path d="M0 0 C2 1 2 1 2 1 Z " fill="#403E3D" transform="translate(192,582)"/>
<path d="M0 0 C2 1 2 1 2 1 Z " fill="#3F3F3F" transform="translate(152,582)"/>
<path d="M0 0 C2 1 2 1 2 1 Z " fill="#403F3F" transform="translate(147,582)"/>
<path d="M0 0 C2 1 2 1 2 1 Z " fill="#414140" transform="translate(136,582)"/>
<path d="M0 0 C2 1 2 1 2 1 Z " fill="#424141" transform="translate(132,582)"/>
<path d="" fill="#414342" transform="translate(0,0)"/>
<path d="" fill="#323032" transform="translate(0,0)"/>
<path d="M0 0 C2 1 2 1 2 1 Z " fill="#3B3B3A" transform="translate(113,533)"/>
<path d="" fill="#343334" transform="translate(0,0)"/>
<path d="" fill="#3A383B" transform="translate(0,0)"/>
<path d="" fill="#313233" transform="translate(0,0)"/>
<path d="M0 0 C2 1 2 1 2 1 Z " fill="#3A3836" transform="translate(398,522)"/>
<path d="" fill="#383536" transform="translate(0,0)"/>
<path d="M0 0 C2 1 2 1 2 1 Z " fill="#353535" transform="translate(421,511)"/>
<path d="" fill="#363433" transform="translate(0,0)"/>
<path d="M0 0 C2 1 2 1 2 1 Z " fill="#363636" transform="translate(186,509)"/>
<path d="" fill="#353534" transform="translate(0,0)"/>
<path d="" fill="#343333" transform="translate(0,0)"/>
<path d="M0 0 C2 1 2 1 2 1 Z " fill="#3B3937" transform="translate(305,495)"/>
<path d="" fill="#353333" transform="translate(0,0)"/>
<path d="M0 0 C2 1 2 1 2 1 Z " fill="#343635" transform="translate(420,481)"/>
<path d="M0 0 C2 1 2 1 2 1 Z " fill="#3C3C3B" transform="translate(176,481)"/>
<path d="M0 0 C2 1 2 1 2 1 Z " fill="#343433" transform="translate(842,477)"/>
<path d="" fill="#353635" transform="translate(0,0)"/>
<path d="M0 0 C2 1 2 1 2 1 Z " fill="#41423F" transform="translate(710,450)"/>
<path d="" fill="#737373" transform="translate(0,0)"/>
<path d="" fill="#464845" transform="translate(0,0)"/>
<path d="" fill="#484748" transform="translate(0,0)"/>
<path d="" fill="#3E3D3D" transform="translate(0,0)"/>
<path d="" fill="#3D3A3B" transform="translate(0,0)"/>
<path d="" fill="#3C3C3B" transform="translate(0,0)"/>
<path d="" fill="#3C3D3A" transform="translate(0,0)"/>
<path d="" fill="#3E3C3B" transform="translate(0,0)"/>
<path d="" fill="#393A3A" transform="translate(0,0)"/>
<path d="" fill="#3C3C3B" transform="translate(0,0)"/>
<path d="" fill="#3E3C3C" transform="translate(0,0)"/>
<path d="" fill="#3D3B3B" transform="translate(0,0)"/>
<path d="" fill="#3F3E3B" transform="translate(0,0)"/>
<path d="" fill="#3D3B3C" transform="translate(0,0)"/>
<path d="" fill="#3D3B3D" transform="translate(0,0)"/>
<path d="" fill="#3D3C3C" transform="translate(0,0)"/>
<path d="" fill="#3E3D3B" transform="translate(0,0)"/>
<path d="" fill="#3F3D3C" transform="translate(0,0)"/>
<path d="" fill="#3E3D3D" transform="translate(0,0)"/>
<path d="" fill="#3D3D3D" transform="translate(0,0)"/>
<path d="" fill="#3E3D3C" transform="translate(0,0)"/>
<path d="" fill="#3E3E3F" transform="translate(0,0)"/>
<path d="" fill="#3F3F3E" transform="translate(0,0)"/>
<path d="" fill="#3E3E3D" transform="translate(0,0)"/>
<path d="" fill="#3F413F" transform="translate(0,0)"/>
<path d="" fill="#414041" transform="translate(0,0)"/>
<path d="" fill="#434342" transform="translate(0,0)"/>
<path d="" fill="#3D3E3E" transform="translate(0,0)"/>
<path d="" fill="#454444" transform="translate(0,0)"/>
<path d="" fill="#454747" transform="translate(0,0)"/>
<path d="" fill="#484748" transform="translate(0,0)"/>
<path d="" fill="#454446" transform="translate(0,0)"/>
<path d="" fill="#444546" transform="translate(0,0)"/>
<path d="" fill="#434342" transform="translate(0,0)"/>
<path d="" fill="#3D3D3C" transform="translate(0,0)"/>
<path d="" fill="#3A393A" transform="translate(0,0)"/>
<path d="" fill="#3A3B39" transform="translate(0,0)"/>
<path d="" fill="#383739" transform="translate(0,0)"/>
<path d="" fill="#383838" transform="translate(0,0)"/>
<path d="" fill="#3B393B" transform="translate(0,0)"/>
<path d="" fill="#3D3D3C" transform="translate(0,0)"/>
<path d="" fill="#3B383A" transform="translate(0,0)"/>
<path d="" fill="#3E3C3D" transform="translate(0,0)"/>
<path d="" fill="#505050" transform="translate(0,0)"/>
<path d="" fill="#383638" transform="translate(0,0)"/>
<path d="" fill="#363734" transform="translate(0,0)"/>
<path d="" fill="#393736" transform="translate(0,0)"/>
<path d="" fill="#393A3A" transform="translate(0,0)"/>
<path d="" fill="#393B39" transform="translate(0,0)"/>
<path d="" fill="#3B3939" transform="translate(0,0)"/>
<path d="" fill="#373436" transform="translate(0,0)"/>
<path d="" fill="#383738" transform="translate(0,0)"/>
<path d="" fill="#3A393A" transform="translate(0,0)"/>
<path d="" fill="#3A3B3A" transform="translate(0,0)"/>
<path d="" fill="#383837" transform="translate(0,0)"/>
<path d="" fill="#383536" transform="translate(0,0)"/>
<path d="" fill="#383838" transform="translate(0,0)"/>
<path d="" fill="#383736" transform="translate(0,0)"/>
<path d="" fill="#383737" transform="translate(0,0)"/>
<path d="" fill="#393935" transform="translate(0,0)"/>
<path d="" fill="#363738" transform="translate(0,0)"/>
<path d="" fill="#303032" transform="translate(0,0)"/>
<path d="" fill="#3D3C3C" transform="translate(0,0)"/>
<path d="" fill="#3A3A3C" transform="translate(0,0)"/>
<path d="" fill="#39383B" transform="translate(0,0)"/>
<path d="" fill="#393837" transform="translate(0,0)"/>
<path d="" fill="#333234" transform="translate(0,0)"/>
<path d="" fill="#383837" transform="translate(0,0)"/>
<path d="" fill="#3D393A" transform="translate(0,0)"/>
<path d="" fill="#373736" transform="translate(0,0)"/>
<path d="" fill="#363635" transform="translate(0,0)"/>
<path d="" fill="#3C3D3C" transform="translate(0,0)"/>
<path d="" fill="#353532" transform="translate(0,0)"/>
<path d="" fill="#373634" transform="translate(0,0)"/>
<path d="" fill="#353535" transform="translate(0,0)"/>
<path d="" fill="#323336" transform="translate(0,0)"/>
<path d="" fill="#333334" transform="translate(0,0)"/>
<path d="" fill="#363536" transform="translate(0,0)"/>
<path d="" fill="#353334" transform="translate(0,0)"/>
<path d="" fill="#3A3936" transform="translate(0,0)"/>
<path d="" fill="#383938" transform="translate(0,0)"/>
<path d="" fill="#373736" transform="translate(0,0)"/>
<path d="" fill="#373737" transform="translate(0,0)"/>
<path d="" fill="#323230" transform="translate(0,0)"/>
<path d="" fill="#383838" transform="translate(0,0)"/>
<path d="" fill="#343434" transform="translate(0,0)"/>
<path d="" fill="#333332" transform="translate(0,0)"/>
<path d="" fill="#343533" transform="translate(0,0)"/>
<path d="" fill="#343533" transform="translate(0,0)"/>
<path d="" fill="#353334" transform="translate(0,0)"/>
<path d="" fill="#353534" transform="translate(0,0)"/>
<path d="" fill="#353332" transform="translate(0,0)"/>
<path d="" fill="#353434" transform="translate(0,0)"/>
<path d="" fill="#383638" transform="translate(0,0)"/>
<path d="" fill="#3A393B" transform="translate(0,0)"/>
<path d="" fill="#363637" transform="translate(0,0)"/>
<path d="" fill="#363A38" transform="translate(0,0)"/>
<path d="" fill="#353536" transform="translate(0,0)"/>
<path d="" fill="#383738" transform="translate(0,0)"/>
<path d="" fill="#363635" transform="translate(0,0)"/>
<path d="" fill="#343434" transform="translate(0,0)"/>
<path d="" fill="#353533" transform="translate(0,0)"/>
<path d="" fill="#353432" transform="translate(0,0)"/>
<path d="" fill="#383739" transform="translate(0,0)"/>
<path d="" fill="#333331" transform="translate(0,0)"/>
<path d="" fill="#343233" transform="translate(0,0)"/>
<path d="" fill="#333232" transform="translate(0,0)"/>
<path d="" fill="#474847" transform="translate(0,0)"/>
<path d="" fill="#393A38" transform="translate(0,0)"/>
<path d="" fill="#353433" transform="translate(0,0)"/>
<path d="" fill="#383839" transform="translate(0,0)"/>
<path d="" fill="#3A3739" transform="translate(0,0)"/>
<path d="" fill="#363535" transform="translate(0,0)"/>
<path d="" fill="#343434" transform="translate(0,0)"/>
<path d="" fill="#353434" transform="translate(0,0)"/>
<path d="" fill="#373635" transform="translate(0,0)"/>
<path d="" fill="#393536" transform="translate(0,0)"/>
<path d="" fill="#313131" transform="translate(0,0)"/>
<path d="" fill="#333332" transform="translate(0,0)"/>
<path d="" fill="#383738" transform="translate(0,0)"/>
<path d="" fill="#333032" transform="translate(0,0)"/>
<path d="" fill="#3B3839" transform="translate(0,0)"/>
<path d="" fill="#343535" transform="translate(0,0)"/>
<path d="" fill="#363333" transform="translate(0,0)"/>
<path d="" fill="#313131" transform="translate(0,0)"/>
<path d="" fill="#393938" transform="translate(0,0)"/>
<path d="" fill="#3B3B3A" transform="translate(0,0)"/>
<path d="" fill="#383937" transform="translate(0,0)"/>
<path d="" fill="#333436" transform="translate(0,0)"/>
<path d="" fill="#393839" transform="translate(0,0)"/>
<path d="" fill="#3B3738" transform="translate(0,0)"/>
<path d="" fill="#3C3B3A" transform="translate(0,0)"/>
<path d="" fill="#3A3A39" transform="translate(0,0)"/>
<path d="" fill="#353333" transform="translate(0,0)"/>
<path d="" fill="#3A3A3A" transform="translate(0,0)"/>
<path d="" fill="#3A3D3A" transform="translate(0,0)"/>
<path d="" fill="#3B3A3A" transform="translate(0,0)"/>
<path d="" fill="#393A39" transform="translate(0,0)"/>
<path d="" fill="#403F3F" transform="translate(0,0)"/>
<path d="" fill="#3A393B" transform="translate(0,0)"/>
<path d="" fill="#3E3F3C" transform="translate(0,0)"/>
<path d="" fill="#333435" transform="translate(0,0)"/>
<path d="" fill="#3A3C3C" transform="translate(0,0)"/>
<path d="" fill="#383737" transform="translate(0,0)"/>
<path d="" fill="#353333" transform="translate(0,0)"/>
<path d="" fill="#353738" transform="translate(0,0)"/>
<path d="" fill="#3D3D3B" transform="translate(0,0)"/>
<path d="" fill="#3A3838" transform="translate(0,0)"/>
<path d="" fill="#383837" transform="translate(0,0)"/>
<path d="" fill="#403F3E" transform="translate(0,0)"/>
<path d="" fill="#383737" transform="translate(0,0)"/>
<path d="" fill="#333332" transform="translate(0,0)"/>
<path d="" fill="#373838" transform="translate(0,0)"/>
<path d="" fill="#373435" transform="translate(0,0)"/>
<path d="" fill="#3C3D3E" transform="translate(0,0)"/>
<path d="" fill="#3C3D3C" transform="translate(0,0)"/>
<path d="" fill="#383639" transform="translate(0,0)"/>
<path d="" fill="#3C3B3C" transform="translate(0,0)"/>
<path d="" fill="#3B3C39" transform="translate(0,0)"/>
<path d="" fill="#403E3E" transform="translate(0,0)"/>
<path d="" fill="#383837" transform="translate(0,0)"/>
<path d="" fill="#343436" transform="translate(0,0)"/>
<path d="" fill="#3A3B3A" transform="translate(0,0)"/>
<path d="" fill="#3C3B3A" transform="translate(0,0)"/>
<path d="" fill="#3C3C3D" transform="translate(0,0)"/>
<path d="" fill="#3B3D3B" transform="translate(0,0)"/>
<path d="" fill="#3C3C39" transform="translate(0,0)"/>
<path d="" fill="#383938" transform="translate(0,0)"/>
<path d="" fill="#393838" transform="translate(0,0)"/>
<path d="" fill="#383A39" transform="translate(0,0)"/>
<path d="" fill="#3E3D3B" transform="translate(0,0)"/>
<path d="" fill="#3D3A39" transform="translate(0,0)"/>
<path d="" fill="#3C3B38" transform="translate(0,0)"/>
<path d="" fill="#373433" transform="translate(0,0)"/>
<path d="" fill="#3F3F3F" transform="translate(0,0)"/>
<path d="" fill="#444747" transform="translate(0,0)"/>
<path d="" fill="#3C3B3D" transform="translate(0,0)"/>
<path d="" fill="#424241" transform="translate(0,0)"/>
<path d="" fill="#343333" transform="translate(0,0)"/>
<path d="" fill="#373634" transform="translate(0,0)"/>
<path d="" fill="#3F3F3F" transform="translate(0,0)"/>
<path d="" fill="#3E3B40" transform="translate(0,0)"/>
<path d="" fill="#3D3D3C" transform="translate(0,0)"/>
<path d="" fill="#3D3F3D" transform="translate(0,0)"/>
<path d="" fill="#464847" transform="translate(0,0)"/>
<path d="" fill="#3B3C3F" transform="translate(0,0)"/>
<path d="" fill="#434341" transform="translate(0,0)"/>
<path d="" fill="#3C3B3A" transform="translate(0,0)"/>
<path d="" fill="#413F3F" transform="translate(0,0)"/>
<path d="" fill="#3C3C3A" transform="translate(0,0)"/>
<path d="" fill="#3C3D3C" transform="translate(0,0)"/>
<path d="" fill="#3F3D3E" transform="translate(0,0)"/>
<path d="" fill="#40413E" transform="translate(0,0)"/>
<path d="" fill="#414142" transform="translate(0,0)"/>
<path d="" fill="#3E3F3D" transform="translate(0,0)"/>
<path d="" fill="#3D413F" transform="translate(0,0)"/>
<path d="" fill="#393637" transform="translate(0,0)"/>
<path d="" fill="#3D3C3C" transform="translate(0,0)"/>
<path d="" fill="#3D3D3C" transform="translate(0,0)"/>
<path d="" fill="#393A3A" transform="translate(0,0)"/>
<path d="" fill="#383938" transform="translate(0,0)"/>
<path d="" fill="#3A383A" transform="translate(0,0)"/>
<path d="" fill="#3D3D40" transform="translate(0,0)"/>
<path d="" fill="#42403E" transform="translate(0,0)"/>
<path d="" fill="#3D3C3B" transform="translate(0,0)"/>
<path d="" fill="#3A3B39" transform="translate(0,0)"/>
<path d="" fill="#3C3E3B" transform="translate(0,0)"/>
<path d="" fill="#3D3C3B" transform="translate(0,0)"/>
<path d="" fill="#3D3C3C" transform="translate(0,0)"/>
<path d="" fill="#3A393B" transform="translate(0,0)"/>
<path d="" fill="#535251" transform="translate(0,0)"/>
<path d="" fill="#4D4C4D" transform="translate(0,0)"/>
<path d="" fill="#474846" transform="translate(0,0)"/>
</svg>
